<svg width="34" height="34" viewBox="0 0 34 34" fill="none" xmlns="http://www.w3.org/2000/svg">
<path d="M33.0092 13.4025H31.6667V13.3333H16.6667V20H26.0858C24.7117 23.8808 21.0192 26.6667 16.6667 26.6667C11.1442 26.6667 6.66667 22.1892 6.66667 16.6667C6.66667 11.1442 11.1442 6.66667 16.6667 6.66667C19.2158 6.66667 21.535 7.62833 23.3008 9.19917L28.015 4.485C25.0383 1.71083 21.0567 0 16.6667 0C7.4625 0 0 7.4625 0 16.6667C0 25.8708 7.4625 33.3333 16.6667 33.3333C25.8708 33.3333 33.3333 25.8708 33.3333 16.6667C33.3333 15.5492 33.2183 14.4583 33.0092 13.4025Z" fill="#FFC107"/>
<path d="M1.92163 8.90917L7.39746 12.925C8.87913 9.25667 12.4675 6.66667 16.6666 6.66667C19.2158 6.66667 21.535 7.62833 23.3008 9.19917L28.015 4.485C25.0383 1.71083 21.0566 0 16.6666 0C10.265 0 4.7133 3.61417 1.92163 8.90917Z" fill="#FF3D00"/>
<path d="M16.6668 33.3334C20.9718 33.3334 24.8835 31.6859 27.841 29.0067L22.6827 24.6417C20.9531 25.957 18.8397 26.6684 16.6668 26.6667C12.3318 26.6667 8.65101 23.9025 7.26435 20.045L1.82935 24.2325C4.58768 29.63 10.1893 33.3334 16.6668 33.3334Z" fill="#4CAF50"/>
<path d="M33.0092 13.4025H31.6667V13.3334H16.6667V20H26.0859C25.4286 21.8471 24.2445 23.461 22.6801 24.6425L22.6826 24.6409L27.8409 29.0059C27.4759 29.3375 33.3334 25 33.3334 16.6667C33.3334 15.5492 33.2184 14.4584 33.0092 13.4025Z" fill="#1976D2"/>
</svg>
