<svg width="18" height="18" viewBox="0 0 18 18" fill="none" xmlns="http://www.w3.org/2000/svg">
<g clip-path="url(#clip0_51_4939)">
<path d="M12.762 0C13.686 0 14.55 0.228001 15.354 0.684C16.134 1.128 16.764 1.737 17.244 2.511C17.724 3.285 17.976 4.134 18 5.058V12.744C18 13.68 17.772 14.55 17.316 15.354C16.872 16.134 16.263 16.764 15.489 17.244C14.715 17.724 13.866 17.976 12.942 18H5.256C4.32 18 3.45 17.772 2.646 17.316C1.878 16.872 1.254 16.26 0.774 15.48C0.294 14.7 0.036 13.848 0 12.924V5.238C0 4.314 0.225 3.456 0.675 2.664C1.125 1.872 1.74 1.236 2.52 0.756001C3.3 0.276001 4.152 0.0240002 5.076 0H12.762ZM12.762 1.26H5.256C4.548 1.26 3.894 1.431 3.294 1.773C2.694 2.115 2.211 2.577 1.845 3.159C1.479 3.741 1.284 4.38 1.26 5.076V12.744C1.26 13.452 1.431 14.106 1.773 14.706C2.115 15.306 2.577 15.789 3.159 16.155C3.741 16.521 4.38 16.716 5.076 16.74H12.762C13.47 16.74 14.121 16.569 14.715 16.227C15.309 15.885 15.789 15.423 16.155 14.841C16.521 14.259 16.716 13.62 16.74 12.924V5.238C16.74 4.518 16.563 3.852 16.209 3.24C15.855 2.628 15.372 2.145 14.76 1.791C14.148 1.437 13.482 1.26 12.762 1.26ZM9 4.626C9.792 4.626 10.524 4.821 11.196 5.211C11.868 5.601 12.399 6.132 12.789 6.804C13.179 7.476 13.374 8.202 13.374 8.982C13.374 9.762 13.185 10.482 12.807 11.142C12.429 11.802 11.919 12.333 11.277 12.735C10.635 13.137 9.93 13.35 9.162 13.374H8.838C8.07 13.35 7.365 13.137 6.723 12.735C6.081 12.333 5.571 11.802 5.193 11.142C4.815 10.482 4.626 9.762 4.626 8.982C4.626 8.202 4.821 7.476 5.211 6.804C5.601 6.132 6.132 5.601 6.804 5.211C7.476 4.821 8.208 4.626 9 4.626ZM9 5.868H8.838C8.298 5.892 7.8 6.048 7.344 6.336C6.888 6.624 6.528 7.002 6.264 7.47C6 7.938 5.868 8.451 5.868 9.009C5.868 9.567 6.009 10.086 6.291 10.566C6.573 11.046 6.954 11.427 7.434 11.709C7.914 11.991 8.436 12.132 9 12.132C9.564 12.132 10.086 11.991 10.566 11.709C11.046 11.427 11.427 11.046 11.709 10.566C11.991 10.086 12.132 9.567 12.132 9.009C12.132 8.451 12 7.938 11.736 7.47C11.472 7.002 11.112 6.624 10.656 6.336C10.2 6.048 9.702 5.892 9.162 5.868H9ZM13.428 3.222C13.692 3.222 13.917 3.318 14.103 3.51C14.289 3.702 14.382 3.93 14.382 4.194C14.382 4.458 14.289 4.683 14.103 4.869C13.917 5.055 13.692 5.148 13.428 5.148C13.164 5.148 12.939 5.055 12.753 4.869C12.567 4.683 12.474 4.458 12.474 4.194C12.474 3.93 12.567 3.702 12.753 3.51C12.939 3.318 13.164 3.222 13.428 3.222Z" fill="#848484"/>
</g>
<defs>
<clipPath id="clip0_51_4939">
<rect width="18" height="18" fill="white" transform="matrix(1 0 0 -1 0 18)"/>
</clipPath>
</defs>
</svg>
