<svg width="18" height="18" viewBox="0 0 18 18" fill="none" xmlns="http://www.w3.org/2000/svg">
<g clip-path="url(#clip0_51_4943)">
<path d="M9 0C10.224 0 11.394 0.234001 12.51 0.702002C13.578 1.158 14.529 1.803 15.363 2.637C16.197 3.471 16.842 4.422 17.298 5.49C17.766 6.606 18 7.776 18 9C18 10.224 17.766 11.394 17.298 12.51C16.842 13.578 16.197 14.529 15.363 15.363C14.529 16.197 13.578 16.842 12.51 17.298C11.394 17.766 10.224 18 9 18C7.776 18 6.606 17.766 5.49 17.298C4.422 16.842 3.471 16.197 2.637 15.363C1.803 14.529 1.158 13.578 0.702 12.51C0.234 11.394 0 10.224 0 9C0 7.776 0.234 6.606 0.702 5.49C1.158 4.422 1.803 3.471 2.637 2.637C3.471 1.803 4.422 1.158 5.49 0.702002C6.606 0.234001 7.776 0 9 0ZM1.602 6.372L1.53 6.552C1.278 7.32 1.152 8.136 1.152 9C1.152 10.428 1.506 11.748 2.214 12.96C2.91 14.148 3.852 15.09 5.04 15.786C6.252 16.494 7.572 16.848 9 16.848H8.928V16.128C8.964 15.852 8.889 15.504 8.703 15.084C8.517 14.664 8.268 14.304 7.956 14.004C7.692 13.764 7.56 13.452 7.56 13.068V11.754C7.56 11.514 7.497 11.292 7.371 11.088C7.245 10.884 7.068 10.722 6.84 10.602L6.786 10.566C5.814 10.062 5.13 9.714 4.734 9.522C4.242 9.282 3.786 8.982 3.366 8.622L3.348 8.586C3.084 8.37 2.82 8.088 2.556 7.74L1.602 6.372ZM9.018 1.152L9.828 1.926C9.96 2.046 10.026 2.199 10.026 2.385C10.026 2.571 9.96 2.73 9.828 2.862L9.63 3.06L9.18 3.474C9.108 3.534 9.072 3.612 9.072 3.708C9.072 3.804 9.108 3.882 9.18 3.942L9.378 4.14C9.438 4.2 9.468 4.278 9.468 4.374C9.468 4.47 9.438 4.548 9.378 4.608L9.036 4.932C8.964 5.004 8.88 5.04 8.784 5.04H8.406C8.322 5.04 8.238 5.07 8.154 5.13L7.74 5.526C7.68 5.586 7.644 5.649 7.632 5.715C7.62 5.781 7.632 5.844 7.668 5.904L8.334 7.2C8.394 7.308 8.391 7.413 8.325 7.515C8.259 7.617 8.16 7.668 8.028 7.668H7.794C7.686 7.668 7.608 7.644 7.56 7.596L7.164 7.254C7.068 7.182 6.96 7.134 6.84 7.11C6.72 7.086 6.606 7.092 6.498 7.128L5.148 7.56C5.04 7.596 4.953 7.656 4.887 7.74C4.821 7.824 4.788 7.92 4.788 8.028C4.788 8.232 4.884 8.382 5.076 8.478L5.562 8.694C5.97 8.898 6.402 9 6.858 9C6.966 9 7.098 9.072 7.254 9.216C7.35 9.312 7.488 9.474 7.668 9.702C7.8 9.882 7.896 10.008 7.956 10.08C8.064 10.2 8.16 10.278 8.244 10.314H11.124C11.304 10.314 11.481 10.35 11.655 10.422C11.829 10.494 11.976 10.59 12.096 10.71L12.69 11.268C12.942 11.52 13.068 11.82 13.068 12.168C13.068 12.42 13.017 12.663 12.915 12.897C12.813 13.131 12.666 13.338 12.474 13.518C12.246 13.746 12.084 13.902 11.988 13.986C11.868 14.106 11.778 14.256 11.718 14.436C11.646 14.748 11.58 14.976 11.52 15.12L10.944 16.614C12 16.338 12.96 15.864 13.824 15.192C14.688 14.52 15.378 13.704 15.894 12.744C16.434 11.772 16.746 10.728 16.83 9.612L16.182 9.468C15.906 9.408 15.696 9.276 15.552 9.072L14.76 8.028C14.64 7.86 14.58 7.683 14.58 7.497C14.58 7.311 14.64 7.14 14.76 6.984L15.624 5.832C15.732 5.688 15.87 5.58 16.038 5.508C15.606 4.644 15.036 3.885 14.328 3.231C13.62 2.577 12.816 2.07 11.916 1.71C10.98 1.338 10.008 1.152 9 1.152H9.018ZM7.56 1.278C7.08 1.362 6.594 1.5 6.102 1.692L6.552 1.908C6.708 1.98 6.864 2.001 7.02 1.971C7.176 1.941 7.305 1.866 7.407 1.746C7.509 1.626 7.56 1.482 7.56 1.314V1.278Z" fill="#848484"/>
</g>
<defs>
<clipPath id="clip0_51_4943">
<rect width="18" height="18" fill="white" transform="matrix(1 0 0 -1 0 18)"/>
</clipPath>
</defs>
</svg>
