<svg width="18" height="18" viewBox="0 0 18 18" fill="none" xmlns="http://www.w3.org/2000/svg">
<g clip-path="url(#clip0_51_4941)">
<path d="M14.256 0H3.744C3.06 0 2.433 0.168001 1.863 0.504002C1.293 0.84 0.84 1.293 0.504 1.863C0.168 2.433 0 3.06 0 3.744V14.256C0 14.94 0.168 15.567 0.504 16.137C0.84 16.707 1.293 17.16 1.863 17.496C2.433 17.832 3.06 18 3.744 18H14.256C14.94 18 15.567 17.832 16.137 17.496C16.707 17.16 17.16 16.707 17.496 16.137C17.832 15.567 18 14.94 18 14.256V3.744C18 3.06 17.832 2.433 17.496 1.863C17.16 1.293 16.707 0.84 16.137 0.504002C15.567 0.168001 14.94 0 14.256 0ZM5.994 14.256H3.744V5.994H5.994V14.256ZM4.878 5.04C4.518 5.04 4.209 4.914 3.951 4.662C3.693 4.41 3.564 4.098 3.564 3.726C3.564 3.354 3.693 3.039 3.951 2.781C4.209 2.523 4.518 2.394 4.878 2.394C5.238 2.394 5.547 2.523 5.805 2.781C6.063 3.039 6.192 3.354 6.192 3.726C6.192 4.098 6.063 4.41 5.805 4.662C5.547 4.914 5.238 5.04 4.878 5.04ZM14.994 14.256H12.744V10.044C12.744 9.456 12.588 8.994 12.276 8.658C12 8.358 11.658 8.214 11.25 8.226C10.842 8.238 10.5 8.394 10.224 8.694C9.912 9.042 9.756 9.492 9.756 10.044V14.256H7.506V5.994H9.756V7.326C10.02 6.846 10.44 6.486 11.016 6.246C11.592 6.006 12.174 5.94 12.762 6.048C13.41 6.168 13.932 6.468 14.328 6.948C14.772 7.512 14.994 8.256 14.994 9.18V14.256Z" fill="#848484"/>
</g>
<defs>
<clipPath id="clip0_51_4941">
<rect width="18" height="18" fill="white" transform="matrix(1 0 0 -1 0 18)"/>
</clipPath>
</defs>
</svg>
