<svg width="200" height="86" viewBox="0 0 200 86" fill="none" xmlns="http://www.w3.org/2000/svg">
    <path d="M121.54 36.0164V36.1299H111.159V36.0164C111.921 35.5202 112.648 35.1019 113.526 34.6803L112.229 14.4929H112.19L104.216 35.7894H102.575L94.9411 14.1491H94.9022L93.4525 33.6134C94.6362 34.3755 95.8945 35.2154 96.8868 36.0164V36.1299H89.4832V36.0164C90.3977 35.2543 91.6592 34.3365 92.7261 33.6134L94.2925 13.1568C93.1866 12.6606 92.3078 12.1644 91.3544 11.6293V11.4769H99.7115L105.857 29.3391L112.534 11.4769H120.129V11.6293C119.289 12.1255 118.488 12.6217 117.496 13.04L119.059 34.6803C119.938 35.1019 120.739 35.5591 121.54 36.0164Z" fill="#4b50ea"/>
    <path d="M138.257 32.2384C136.999 34.7939 134.518 36.5126 130.967 36.5126C125.853 36.5126 122.458 33.0005 122.458 27.6593C122.458 21.6663 126.732 18.3488 131.084 18.3488C135.358 18.3488 138.222 21.5172 138.222 25.4087V26.1351H127.954C128.146 31.4795 130.322 33.4999 133.908 33.4999C135.588 33.4999 136.885 33.0037 138.144 32.1249L138.257 32.2384ZM127.912 25.1785V25.4087H133.257C133.257 20.7518 132.494 18.9196 130.815 18.9196C129.057 18.9196 127.912 20.8653 127.912 25.1785Z" fill="#4b50ea"/>
    <path d="M160.121 35.4456V36.1331H152.374V34.2619C150.999 35.6726 149.358 36.5126 147.299 36.5126C143.595 36.5126 140.505 33.5355 140.505 27.9252C140.505 21.2836 144.549 18.3455 149.51 18.3455C150.616 18.3455 151.456 18.459 152.374 18.7638V12.6184L150.237 11.3958V11.2045C152.296 10.4424 155.351 9.60246 157.718 9.18088V35.4391H160.121V35.4456ZM152.377 33.3474V20.1032C151.615 19.4157 150.889 19.1108 150.01 19.1108C147.681 19.1108 146.193 21.209 146.193 27.2766C146.193 33.3053 147.681 34.7938 149.627 34.7938C150.697 34.797 151.498 34.4144 152.377 33.3474Z" fill="#4b50ea"/>
    <path d="M170.807 36.0164V36.1299H161.305V36.0164C161.992 35.5591 162.641 35.1765 163.481 34.7581V21.9355L161.305 20.6383V20.4469C163.364 19.6459 166.497 18.8449 168.861 18.4233V34.7581C169.623 35.1797 170.197 35.5591 170.807 36.0164ZM162.868 12.4693C162.868 10.5624 164.204 9.22629 166.15 9.22629C168.096 9.22629 169.393 10.5624 169.393 12.4693C169.393 14.3404 168.096 15.7122 166.15 15.7122C164.204 15.7155 162.868 14.3404 162.868 12.4693Z" fill="#4b50ea"/>
    <path d="M188.021 32.5076C186.646 35.1019 184.165 36.5159 181.113 36.5159C176.265 36.5159 172.908 32.9681 172.908 27.7372C172.908 22.2403 176.648 18.3488 182.031 18.3488C184.168 18.3488 186.039 18.7315 187.871 19.4936C187.794 21.4782 187.641 23.197 187.375 25.3698H187.184L182.644 19.2244C182.339 19.0331 182.07 18.9196 181.651 18.9196C179.78 18.9196 178.256 21.6307 178.256 25.6746C178.256 30.5975 180.585 33.4999 184.285 33.4999C185.468 33.4999 186.688 33.0816 187.91 32.3941L188.021 32.5076Z" fill="#4b50ea"/>
    <path d="M91.1631 72.0554C91.1631 69.3086 91.202 66.484 91.2766 64.308H91.5068L97.1172 72.3602C97.5744 72.5516 98.1095 72.6262 98.797 72.6262C101.544 72.6262 103.493 71.2155 103.493 68.4654C103.493 62.093 91.3933 62.7027 91.3933 54.6893C91.3933 50.3373 95.0579 47.8953 100.286 47.8953C102.919 47.8953 105.286 48.3915 107.08 49.306C107.041 51.2907 106.966 54.0375 106.814 56.5962H106.622L101.434 48.9266C101.015 48.7352 100.555 48.5828 99.945 48.5828C97.6166 48.5828 96.0146 49.88 96.0146 52.095C96.0146 58.2404 108.15 57.9712 108.15 66.4062C108.15 70.9463 104.294 73.3526 98.6089 73.3526C95.8946 73.3526 93.0343 72.8564 91.1631 72.0554Z" fill="#4b50ea"/>
    <path d="M125.775 69.3055C124.4 71.8998 121.919 73.3138 118.868 73.3138C114.019 73.3138 110.663 69.766 110.663 64.5351C110.663 59.0382 114.402 55.1467 119.785 55.1467C121.922 55.1467 123.794 55.5294 125.626 56.2915C125.548 58.2761 125.396 59.9949 125.13 62.1677H124.938L120.398 56.0223C120.093 55.8309 119.824 55.7174 119.406 55.7174C117.535 55.7174 116.01 58.4286 116.01 62.4725C116.01 67.3954 118.339 70.2978 122.039 70.2978C123.223 70.2978 124.442 69.8795 125.665 69.192L125.775 69.3055Z" fill="#4b50ea"/>
    <path d="M148.139 72.8174V72.9309H138.637V72.8174C139.247 72.3602 139.821 71.9775 140.583 71.5592V60.0726C140.583 58.049 139.668 56.7518 137.797 56.7518C136.691 56.7518 135.812 57.248 134.933 58.1268V71.5592C135.695 71.9775 136.269 72.3602 136.879 72.8174V72.9309H127.377V72.8174C128.065 72.3602 128.713 71.9775 129.553 71.5592V49.4616L127.338 48.2034V48.012C129.437 47.2499 132.414 46.41 134.82 45.9884V57.4393C136.308 55.9508 138.407 55.1109 140.469 55.1109C144.056 55.1109 145.966 57.3615 145.966 60.9514V71.5624C146.803 71.9775 147.451 72.3602 148.139 72.8174Z" fill="#4b50ea"/>
    <path d="M149.666 64.2302C149.666 58.8858 153.522 55.1467 158.863 55.1467C164.204 55.1467 168.06 58.8858 168.06 64.2302C168.06 69.6492 164.204 73.3527 158.863 73.3527C153.522 73.3527 149.666 69.6492 149.666 64.2302ZM162.298 64.2302C162.298 58.1237 161.266 55.7207 158.863 55.7207C156.46 55.7207 155.429 58.1237 155.429 64.2302C155.429 70.3756 156.46 72.7398 158.789 72.7398C161.227 72.7398 162.298 70.2978 162.298 64.2302Z" fill="#4b50ea"/>
    <path d="M170.198 64.2302C170.198 58.8858 174.053 55.1467 179.395 55.1467C184.739 55.1467 188.592 58.8858 188.592 64.2302C188.592 69.6492 184.736 73.3527 179.395 73.3527C174.05 73.3527 170.198 69.6492 170.198 64.2302ZM182.829 64.2302C182.829 58.1237 181.798 55.7207 179.395 55.7207C176.992 55.7207 175.96 58.1237 175.96 64.2302C175.96 70.3756 176.992 72.7398 179.32 72.7398C181.759 72.7398 182.829 70.2978 182.829 64.2302Z" fill="#4b50ea"/>
    <path d="M200 72.2435V72.931H190.307V72.2435H192.483V49.4973L190.307 48.2002V48.0088C192.366 47.2467 195.382 46.4068 197.824 45.9852V72.2435H200Z" fill="#4b50ea"/>
    <path d="M200 13.7891C200 16.0106 198.35 17.3856 196.475 17.3856C194.62 17.3856 192.969 16.0106 192.969 13.7891C192.969 11.5515 194.62 10.1732 196.475 10.1732C198.35 10.1765 200 11.5515 200 13.7891ZM199.744 13.7891C199.744 11.678 198.204 10.4294 196.478 10.4294C194.773 10.4294 193.229 11.678 193.229 13.7891C193.229 15.8809 194.769 17.1294 196.478 17.1294C198.204 17.1294 199.744 15.8841 199.744 13.7891ZM198.054 15.4982C198.239 15.5533 198.44 15.6279 198.551 15.683V15.7382H197.156V15.683C197.247 15.6279 197.357 15.5728 197.506 15.5177L196.569 13.867H195.872V15.5177C196.037 15.5533 196.258 15.6279 196.384 15.683V15.7382H194.88V15.683C195.009 15.6279 195.21 15.5533 195.376 15.5177V11.8661C195.21 11.8109 195.026 11.7558 194.88 11.6812V11.6261H196.53C197.227 11.6261 197.87 11.9926 197.87 12.6898C197.87 13.2573 197.412 13.627 196.822 13.7924C196.897 13.7924 196.988 13.8118 197.062 13.8281L198.054 15.4982ZM195.872 13.6821H196.55C197.082 13.5362 197.338 13.2606 197.338 12.7287C197.338 12.0315 196.971 11.8304 196.42 11.8304H195.869V13.6821H195.872Z" fill="#4b50ea"/>
    <path d="M0 0V50.2173C0 54.7347 0.872358 59.1192 2.53924 63.1989C3.03541 64.4117 3.59969 65.5954 4.23207 66.7499C5.92814 69.834 8.11065 72.691 10.7407 75.2303C14.3598 78.7197 18.6049 81.3854 23.2261 83.1398C24.0109 83.4382 24.8054 83.7106 25.6097 83.9571C29.1445 85.0305 32.8674 85.5915 36.6779 85.5915C40.4884 85.5915 44.2113 85.0337 47.7461 83.9571C48.5504 83.7138 49.3449 83.4382 50.1297 83.1398C54.7542 81.3854 58.996 78.7197 62.6151 75.2303C65.2484 72.691 67.4309 69.834 69.1238 66.7499C69.7561 65.5954 70.3237 64.4117 70.8166 63.1989C72.4835 59.1192 73.3558 54.7347 73.3558 50.2173V0H0ZM70.8263 26.7577V28.3921V50.2205C70.8263 53.7943 70.2296 57.2383 69.1335 60.4618C64.6582 73.6152 51.8031 83.1398 36.6844 83.1398C21.5657 83.1398 8.7106 73.6152 4.23531 60.4618C3.13919 57.235 2.54248 53.7943 2.54248 50.2205V28.3921V26.7577V2.45168H70.8296V26.7577H70.8263Z" fill="#4b50ea"/>
    <path d="M43.0049 9.77756L38.2377 24.1893C38.2085 24.2833 38.1664 24.3741 38.1177 24.4617C37.8291 24.9773 37.2908 25.2854 36.6843 25.2854C36.0779 25.2854 35.5396 24.9773 35.2509 24.4617C35.2023 24.3741 35.1601 24.2833 35.131 24.1893L30.3638 9.77756L28.0548 10.4878L32.822 24.8995C32.8998 25.133 33.0003 25.36 33.1203 25.574C33.8403 26.855 35.1731 27.6203 36.6876 27.6203C38.1988 27.6203 39.5317 26.855 40.2548 25.574C40.3748 25.36 40.4754 25.133 40.5532 24.8995L45.3204 10.4878L43.0049 9.77756Z" fill="#4b50ea"/>
    <path d="M30.944 25.9437L20.3817 14.7554L18.5884 16.3283L29.1507 27.5165C29.2188 27.5878 29.2804 27.6689 29.3355 27.7532C29.6534 28.2526 29.6631 28.8558 29.3582 29.3617C29.0534 29.8709 28.5086 30.1627 27.9021 30.1465C27.8016 30.1433 27.6978 30.1303 27.5973 30.1109L12.2678 26.8841L11.7522 29.1672L27.0817 32.3939C27.3281 32.4458 27.5843 32.475 27.8373 32.4815C27.8762 32.4815 27.9151 32.4815 27.954 32.4815C29.4199 32.4815 30.7235 31.755 31.4597 30.526C32.2153 29.2645 32.1958 27.7662 31.4046 26.5241C31.2684 26.3231 31.1127 26.1253 30.944 25.9437Z" fill="#4b50ea"/>
    <path d="M45.7677 30.1142C45.6672 30.1337 45.5666 30.1467 45.4629 30.1499C44.8499 30.1629 44.3116 29.871 44.0068 29.3651C43.7019 28.856 43.7117 28.256 44.0295 27.7566C44.0814 27.6723 44.143 27.5944 44.2143 27.5199L54.7766 16.3316L52.9833 14.7588L42.421 25.947C42.2491 26.1286 42.0967 26.3264 41.9637 26.534C41.1724 27.776 41.153 29.2711 41.9086 30.5358C42.6447 31.7649 43.9484 32.4913 45.4142 32.4913C45.4531 32.4913 45.492 32.4913 45.531 32.4913C45.7839 32.4848 46.0401 32.4556 46.2866 32.4038L61.6161 29.177L61.1004 26.894L45.7677 30.1142Z" fill="#4b50ea"/>
    <path d="M36.6807 37.8161C38.8013 37.8161 40.5204 36.1595 40.5204 34.1159C40.5204 32.0723 38.8013 30.4157 36.6807 30.4157C34.5601 30.4157 32.8411 32.0723 32.8411 34.1159C32.8411 36.1595 34.5601 37.8161 36.6807 37.8161Z" fill="#4b50ea"/>
    <path d="M46.1567 37.4595C42.4533 37.4595 38.9736 39.0907 36.7165 41.8505C34.4594 39.0875 30.9797 37.4595 27.2762 37.4595H11.7489C11.9727 39.0907 12.5759 40.6538 13.5001 42.1066H27.2762C29.6338 42.1066 31.8358 43.2028 33.1654 45.035C33.2303 45.1226 33.2951 45.2101 33.3632 45.2977C33.3503 45.3107 33.3373 45.3237 33.3243 45.3366C31.7418 46.8803 30.2014 48.8909 30.2014 52.2312C30.2014 52.3122 30.2014 52.3933 30.2046 52.4712C30.2046 52.5393 30.2078 52.6041 30.2111 52.669C30.2111 52.6884 30.2143 52.7111 30.2143 52.7306C30.2176 52.7922 30.2208 52.8571 30.2241 52.9187C30.2241 52.9381 30.2273 52.9576 30.2273 52.9771C30.2435 53.1911 30.263 53.3986 30.2922 53.5997C30.2922 53.6029 30.2922 53.6062 30.2922 53.6094C30.3019 53.671 30.3116 53.7294 30.3181 53.791C30.3214 53.8105 30.3246 53.8267 30.3278 53.8462C30.3376 53.9045 30.3473 53.9597 30.357 54.018C30.3603 54.0343 30.3635 54.0505 30.3668 54.0667C30.4057 54.258 30.4478 54.4461 30.4965 54.6277C30.4965 54.631 30.4997 54.6375 30.4997 54.6407C30.5159 54.6958 30.5289 54.7509 30.5451 54.8061C30.5484 54.8223 30.5548 54.8385 30.5581 54.8547C30.5743 54.9066 30.5905 54.9585 30.6067 55.0104C30.61 55.0234 30.6165 55.0363 30.6197 55.0493C30.6748 55.2244 30.7365 55.3931 30.8013 55.5584C30.8046 55.5617 30.8046 55.5682 30.8078 55.5714C30.8273 55.6233 30.85 55.672 30.8694 55.7206C30.8759 55.7336 30.8824 55.7465 30.8856 55.7628C30.9051 55.8114 30.9278 55.86 30.9505 55.9087C30.9537 55.9184 30.9602 55.9281 30.9635 55.9411C31.038 56.1 31.1126 56.2589 31.1937 56.4081C31.1969 56.4113 31.197 56.4146 31.2002 56.4178C31.2261 56.4665 31.2521 56.5119 31.278 56.5573C31.2845 56.567 31.291 56.5767 31.2942 56.5897C31.3202 56.6351 31.3461 56.6805 31.3721 56.7259C31.3753 56.7324 31.3786 56.7357 31.3818 56.7421C31.4985 56.94 31.625 57.1345 31.7547 57.3194C31.758 57.3226 31.7612 57.3291 31.7645 57.3324C31.9299 57.5691 32.105 57.7928 32.2833 58.0101C32.6757 57.6242 33.0681 57.274 33.4314 56.9464L33.4378 56.94C33.6519 56.7454 33.8562 56.5638 34.0475 56.3822L35.7857 54.7639C35.2766 54.0472 35.0172 53.2916 35.0172 52.2279C35.0172 50.7621 35.5133 49.8768 36.4732 48.8812C36.5511 48.8001 36.6322 48.7191 36.7132 48.638C37.8061 49.7211 38.3736 50.6227 38.3736 52.1923C38.3736 52.2539 38.3736 52.3123 38.3704 52.3706C38.3704 52.3868 38.3704 52.403 38.3671 52.4193C38.3639 52.4647 38.3639 52.5101 38.3607 52.5555C38.3607 52.5684 38.3607 52.5814 38.3574 52.5944C38.3542 52.6527 38.3477 52.7079 38.3444 52.763C38.3444 52.7695 38.3444 52.7727 38.3412 52.7792C38.3347 52.8279 38.3282 52.8798 38.3217 52.9284C38.3185 52.9414 38.3185 52.9544 38.3153 52.9673C38.3088 53.0127 38.3023 53.0581 38.2926 53.1035C38.2926 53.11 38.2893 53.1165 38.2893 53.1262C38.2796 53.1781 38.2698 53.23 38.2569 53.2819C38.2536 53.2884 38.2536 53.2981 38.2504 53.3046C38.2407 53.3467 38.2309 53.3922 38.218 53.4343C38.2147 53.444 38.2115 53.457 38.2082 53.4667C38.1823 53.5673 38.1499 53.6646 38.1142 53.7586C38.111 53.7683 38.1077 53.7748 38.1045 53.7846C38.0883 53.8267 38.072 53.8656 38.0558 53.9045C38.0526 53.911 38.0493 53.9208 38.0461 53.9272C38.0072 54.0213 37.965 54.1121 37.9164 54.2029C37.9131 54.2094 37.9099 54.2191 37.9034 54.2256C37.8807 54.2678 37.8612 54.3067 37.8353 54.3488C37.8321 54.3521 37.8321 54.3553 37.8288 54.3585C37.8029 54.4039 37.7737 54.4494 37.7477 54.4948C37.7218 54.5369 37.6926 54.5823 37.6634 54.6245C37.6602 54.631 37.6569 54.6342 37.6537 54.6407C37.5661 54.7672 37.4753 54.8936 37.3716 55.0169C37.3683 55.0201 37.3683 55.0234 37.3651 55.0234C37.3326 55.0623 37.3002 55.1012 37.2678 55.1401C37.2645 55.1434 37.2645 55.1466 37.2613 55.1466C37.1932 55.2277 37.1186 55.3088 37.044 55.3898C37.0408 55.3931 37.0343 55.3995 37.031 55.4028C36.9986 55.4352 36.9662 55.4709 36.9338 55.5033C36.924 55.5131 36.9143 55.526 36.9013 55.5357C36.8721 55.5649 36.8462 55.5941 36.817 55.6233C36.804 55.6363 36.7943 55.646 36.7813 55.659C36.7457 55.6947 36.71 55.7303 36.6743 55.766C36.6711 55.7692 36.6678 55.7725 36.6646 55.7757V55.7822L36.6613 55.779L34.9912 57.3324C34.7869 57.5237 34.5761 57.7118 34.3556 57.9096C33.9762 58.2501 33.5773 58.6101 33.1849 58.9992C32.9514 59.2295 32.7211 59.4695 32.4974 59.7224C32.4909 59.7289 32.4844 59.7354 32.4779 59.7419C32.4098 59.8165 32.345 59.8943 32.2801 59.9721C32.2704 59.9851 32.2606 59.9981 32.2477 60.0078C32.2185 60.0402 32.1925 60.0759 32.1634 60.1116C32.1439 60.1375 32.1212 60.1635 32.1017 60.1894C32.0596 60.2413 32.0174 60.2964 31.9753 60.3516C31.9558 60.3775 31.9363 60.4034 31.9169 60.4294C31.8909 60.4651 31.865 60.4975 31.8391 60.5332C31.8034 60.5818 31.7677 60.6337 31.732 60.6823C31.7093 60.7148 31.6866 60.7504 31.6639 60.7829C31.6412 60.8153 31.6218 60.8477 31.5991 60.8769C31.5699 60.9223 31.5407 60.9645 31.5115 61.0099C31.4856 61.052 31.4564 61.0942 31.4304 61.1396C31.411 61.172 31.3883 61.2077 31.3688 61.2401C31.3461 61.279 31.3202 61.3212 31.2975 61.3634C31.2715 61.4088 31.2456 61.4542 31.2197 61.4996C31.197 61.5417 31.171 61.5871 31.1483 61.6325C31.1321 61.665 31.1126 61.6974 31.0964 61.7298C31.064 61.7947 31.0316 61.8563 30.9991 61.9211C30.9862 61.9503 30.9732 61.9795 30.957 62.0087C30.9343 62.0574 30.9116 62.106 30.8889 62.1546C30.8759 62.1871 30.8597 62.2163 30.8467 62.2487C30.8175 62.3168 30.7883 62.3881 30.7591 62.4595C30.7462 62.4887 30.7365 62.5211 30.7235 62.5503C30.7008 62.6054 30.6813 62.6638 30.6586 62.7222C30.6489 62.7481 30.6392 62.774 30.6294 62.8C30.6035 62.8778 30.5775 62.9556 30.5516 63.0335C30.5419 63.0627 30.5321 63.0951 30.5224 63.1243C30.4997 63.1956 30.4803 63.2702 30.4576 63.3448C30.4511 63.3675 30.4446 63.3935 30.4381 63.4162C30.4186 63.494 30.3992 63.5718 30.3797 63.6496C30.3732 63.6788 30.3668 63.708 30.3603 63.7372C30.3408 63.8248 30.3214 63.9156 30.3051 64.0064C30.3019 64.0258 30.2987 64.0485 30.2954 64.068C30.2824 64.1458 30.2662 64.2269 30.2565 64.308C30.2533 64.3339 30.25 64.3599 30.2435 64.3826C30.2305 64.4798 30.2176 64.5771 30.2046 64.6744C30.2014 64.6971 30.1981 64.7231 30.1981 64.749C30.1884 64.8398 30.1819 64.9274 30.1722 65.0214C30.1722 65.0409 30.1689 65.0571 30.1689 65.0766C30.1625 65.1803 30.156 65.2873 30.1527 65.3944C30.1527 65.4203 30.1495 65.4462 30.1495 65.4722C30.1462 65.5824 30.143 65.6927 30.143 65.8095C30.143 69.9183 32.4779 72.0197 34.3524 73.7061C34.5599 73.8942 34.7577 74.0693 34.9491 74.2509C34.9491 74.2509 34.9491 74.2509 34.9523 74.2541L36.6257 75.8075L38.2958 74.2509C38.3153 74.2314 38.3347 74.2152 38.3574 74.1958C38.5423 74.0239 38.7336 73.852 38.9314 73.6736C39.0157 73.5958 39.1033 73.518 39.1909 73.4402C39.4633 73.1937 39.7389 72.9407 40.0178 72.6716C41.6004 71.1279 43.1408 69.1173 43.1408 65.777C43.1408 65.696 43.1408 65.6181 43.1375 65.5371C43.1375 65.4689 43.1343 65.4041 43.1311 65.3392C43.1311 65.3198 43.1278 65.2971 43.1278 65.2776C43.1246 65.216 43.1213 65.1511 43.1181 65.0895C43.1181 65.0701 43.1148 65.0506 43.1148 65.0312C43.0986 64.8171 43.0792 64.6096 43.05 64.4085C43.05 64.4053 43.05 64.402 43.05 64.3988C43.0403 64.3372 43.0305 64.2788 43.024 64.2172C43.0208 64.1977 43.0176 64.1815 43.0143 64.162C43.0046 64.1037 42.9949 64.0485 42.9851 63.9902C42.9819 63.9739 42.9786 63.9577 42.9754 63.9415C42.9365 63.7502 42.8943 63.5621 42.8457 63.3805C42.8457 63.3772 42.8424 63.3708 42.8424 63.3675C42.8262 63.3124 42.8132 63.2572 42.797 63.2021C42.7938 63.1859 42.7873 63.1697 42.7841 63.1535C42.7678 63.1016 42.7516 63.0497 42.7354 62.9978C42.7322 62.9848 42.7257 62.9719 42.7224 62.9589C42.6673 62.7838 42.6057 62.6151 42.5408 62.4497C42.5376 62.4465 42.5376 62.44 42.5343 62.4368C42.5149 62.3849 42.4922 62.3362 42.4727 62.2876C42.4662 62.2746 42.4598 62.2617 42.4565 62.2454C42.4371 62.1968 42.4144 62.1482 42.3917 62.0995C42.3884 62.0898 42.3819 62.08 42.3787 62.0671C42.3041 61.9082 42.2295 61.7493 42.1484 61.6001C42.1452 61.5968 42.1452 61.5936 42.142 61.5904C42.116 61.5417 42.0901 61.4963 42.0641 61.4509C42.0576 61.4412 42.0511 61.4315 42.0479 61.4185C42.022 61.3731 41.996 61.3277 41.9701 61.2823C41.9668 61.2758 41.9636 61.2726 41.9603 61.2661C41.8436 61.0683 41.7171 60.8737 41.5874 60.6888C41.5842 60.6856 41.5809 60.6791 41.5777 60.6759C41.4123 60.4391 41.2372 60.2153 41.0588 59.9981C40.6664 60.384 40.274 60.7342 39.9108 61.0618L39.9043 61.0682C39.6903 61.2628 39.486 61.4444 39.2946 61.626L37.5564 63.241C38.0656 63.9577 38.325 64.7133 38.325 65.777C38.325 67.2428 37.8288 68.1282 36.8689 69.1238C36.7911 69.2048 36.71 69.2859 36.6289 69.367C35.536 68.2838 34.9685 67.3823 34.9685 65.8127C34.9685 65.7511 34.9685 65.6927 34.9718 65.6343C34.9718 65.6181 34.9718 65.6019 34.975 65.5857C34.9782 65.5403 34.9783 65.4949 34.9815 65.4495C34.9815 65.4365 34.9815 65.4235 34.9847 65.4106C34.988 65.3522 34.9945 65.2971 34.9977 65.2419C34.9977 65.2354 34.9977 65.2322 35.0009 65.2257C35.0074 65.1771 35.0139 65.1252 35.0204 65.0766C35.0236 65.0636 35.0236 65.0506 35.0269 65.0376C35.0334 64.9922 35.0399 64.9468 35.0496 64.9014C35.0496 64.8949 35.0528 64.8884 35.0528 64.8787C35.0626 64.8268 35.0723 64.775 35.0853 64.7231C35.0885 64.7166 35.0885 64.7068 35.0918 64.7004C35.1015 64.6582 35.1112 64.6128 35.1242 64.5707C35.1274 64.5609 35.1307 64.5479 35.1339 64.5382C35.1599 64.4377 35.1923 64.3404 35.228 64.2464C35.2312 64.2366 35.2344 64.2301 35.2377 64.2204C35.2539 64.1783 35.2701 64.1393 35.2863 64.1004C35.2896 64.0939 35.2928 64.0842 35.2961 64.0777C35.335 63.9837 35.3771 63.8929 35.4258 63.8053C35.429 63.7988 35.4323 63.7891 35.4388 63.7826C35.4615 63.7404 35.4809 63.7015 35.5069 63.6594C35.5101 63.6561 35.5101 63.6529 35.5133 63.6496C35.5393 63.6042 35.5685 63.5588 35.5944 63.5134C35.6204 63.4713 35.6495 63.4259 35.6787 63.3837C35.682 63.3772 35.6852 63.374 35.6885 63.3675C35.776 63.241 35.8668 63.1146 35.9706 62.9913C35.9738 62.9881 35.9738 62.9848 35.9771 62.9848C36.0095 62.9459 36.0419 62.907 36.0744 62.8681C36.0776 62.8649 36.0776 62.8616 36.0809 62.8616C36.149 62.7805 36.2235 62.6995 36.2981 62.6184C36.3014 62.6151 36.3079 62.6087 36.3111 62.6054C36.3435 62.573 36.376 62.5373 36.4084 62.5049C36.4181 62.4952 36.4279 62.4822 36.4408 62.4724C36.47 62.4433 36.4959 62.4141 36.5251 62.3849C36.5381 62.3719 36.5478 62.3622 36.5608 62.3492C36.5965 62.3135 36.6322 62.2779 36.6678 62.2454C36.6711 62.2422 36.6743 62.239 36.6776 62.2357V62.2292L36.6808 62.2325L38.3509 60.6791C38.5552 60.4878 38.766 60.2997 38.9865 60.1018C39.366 59.7613 39.7649 59.4014 40.1573 59.0122C40.3908 58.782 40.621 58.542 40.8448 58.289C40.8513 58.2826 40.8577 58.276 40.8642 58.2696C40.9323 58.195 40.9972 58.1172 41.062 58.0393C41.0718 58.0264 41.0815 58.0134 41.0945 58.0037C41.1237 57.9712 41.1496 57.9356 41.1788 57.8999C41.1982 57.8739 41.2209 57.848 41.2404 57.8221C41.2826 57.7702 41.3247 57.715 41.3669 57.6599C41.3863 57.634 41.4058 57.608 41.4253 57.5821C41.4512 57.5496 41.4771 57.514 41.5031 57.4783C41.5388 57.4297 41.5744 57.3778 41.6101 57.3291C41.6328 57.2967 41.6555 57.261 41.6782 57.2286C41.7009 57.1962 41.7204 57.1637 41.7431 57.1345C41.7722 57.0891 41.8014 57.047 41.8306 57.0016C41.8566 56.9594 41.8858 56.914 41.9117 56.8718C41.9312 56.8394 41.9539 56.8037 41.9733 56.7713C41.996 56.7324 42.022 56.6902 42.0447 56.6481C42.0706 56.6027 42.0965 56.5573 42.1225 56.5119C42.1452 56.4697 42.1711 56.4243 42.1938 56.3789C42.2101 56.3465 42.2295 56.3141 42.2457 56.2816C42.2782 56.2168 42.3106 56.1552 42.343 56.0903C42.356 56.0611 42.369 56.0319 42.3852 56.0027C42.4079 55.9541 42.4306 55.9055 42.4533 55.8568C42.4662 55.8244 42.4825 55.7952 42.4954 55.7628C42.5246 55.6947 42.5538 55.6233 42.583 55.552C42.596 55.5228 42.6057 55.4904 42.6187 55.4612C42.6414 55.4028 42.6608 55.3477 42.6835 55.2893C42.6933 55.2634 42.703 55.2374 42.7127 55.2114C42.7387 55.1336 42.7646 55.0558 42.7905 54.978C42.8003 54.9488 42.81 54.9163 42.8197 54.8872C42.8424 54.8158 42.8619 54.7412 42.8846 54.6666C42.8911 54.6439 42.8976 54.6212 42.904 54.5953C42.9235 54.5175 42.943 54.4396 42.9624 54.3618C42.9689 54.3326 42.9754 54.3034 42.9819 54.2742C43.0013 54.1867 43.0208 54.0959 43.037 54.0051C43.0403 53.9856 43.0435 53.9629 43.0467 53.9435C43.0597 53.8656 43.0759 53.7846 43.0857 53.7035C43.0889 53.6775 43.0921 53.6516 43.0986 53.6289C43.1116 53.5316 43.1246 53.4343 43.1375 53.337C43.1408 53.3143 43.144 53.2884 43.144 53.2624C43.1538 53.1716 43.1602 53.0841 43.17 52.99C43.17 52.9706 43.1732 52.9544 43.1732 52.9349C43.1797 52.8311 43.1862 52.7241 43.1894 52.6171C43.1894 52.5911 43.1927 52.5652 43.1927 52.5393C43.1959 52.429 43.1992 52.3187 43.1992 52.2052C43.1992 48.865 41.6555 46.8511 40.0729 45.3074C40.1378 45.2231 40.2059 45.1356 40.2675 45.048C41.5971 43.2125 43.7991 42.1196 46.1567 42.1196H59.8647C60.7922 40.6635 61.3954 39.1037 61.6159 37.4725H46.1567V37.4595Z" fill="#4b50ea"/>
    <path d="M47.1913 44.6328C45.7709 44.6328 44.4023 45.0058 43.2186 45.6868C42.7906 45.9332 42.6641 46.4683 42.9365 46.8705C43.3192 47.4315 43.6629 48.0541 43.9418 48.7481C44.0716 49.0692 44.3861 49.2832 44.7428 49.2832H47.188H50.8331C53.6253 48.0541 56.0057 46.4716 57.825 44.6361H50.8364H47.1913V44.6328Z" fill="#4b50ea"/>
    <path d="M30.1917 45.7484C28.9853 45.0317 27.5779 44.6328 26.1153 44.6328H22.5286H15.5367C17.3528 46.4683 19.7364 48.0509 22.5286 49.28H26.1153H28.6643C29.021 49.28 29.3388 49.0659 29.4685 48.7481C29.7474 48.0671 30.0847 47.4574 30.4576 46.9093C30.7235 46.5202 30.6035 45.9916 30.1917 45.7484Z" fill="#4b50ea"/>
</svg>
