<svg width="19" height="18" viewBox="0 0 19 18" fill="none" xmlns="http://www.w3.org/2000/svg">
<path d="M17.6953 17.9001C15.6386 17.9001 13.6066 17.4629 11.5992 16.5886C9.59187 15.7142 7.76551 14.4755 6.12014 12.8725C4.47478 11.2688 3.20389 9.48865 2.3075 7.53213C1.4111 5.57562 0.962572 3.59504 0.961914 1.59041C0.961914 1.30174 1.06064 1.06119 1.25808 0.868745C1.45552 0.6763 1.70233 0.580078 1.9985 0.580078H5.99674C6.22709 0.580078 6.43276 0.656414 6.61376 0.809087C6.79475 0.96176 6.90169 1.14202 6.9346 1.34986L7.57629 4.71763C7.6092 4.97423 7.60098 5.19073 7.55161 5.36713C7.50225 5.54354 7.41176 5.69589 7.28013 5.82419L4.88612 8.18163C5.21519 8.775 5.6058 9.34817 6.05795 9.90112C6.5101 10.4541 7.00799 10.9875 7.55161 11.5013C8.06168 11.9984 8.59642 12.4597 9.15585 12.885C9.71527 13.3103 10.3076 13.699 10.9328 14.0512L13.2528 11.79C13.4009 11.6456 13.5944 11.5372 13.8333 11.4647C14.0722 11.3922 14.3065 11.3724 14.5362 11.4051L17.9421 12.0786C18.1725 12.1428 18.3617 12.2592 18.5098 12.4279C18.6579 12.5966 18.7319 12.7849 18.7319 12.9927V16.8897C18.7319 17.1784 18.6332 17.419 18.4357 17.6114C18.2383 17.8039 17.9915 17.9001 17.6953 17.9001Z" fill="#777777"/>
</svg>
