<svg width="21" height="20" viewBox="0 0 21 20" fill="none" xmlns="http://www.w3.org/2000/svg">
<path d="M10.506 0.61792C5.19454 0.61792 0.883789 4.92868 0.883789 10.2401C0.883789 15.5516 5.19454 19.8624 10.506 19.8624C15.8175 19.8624 20.1282 15.5516 20.1282 10.2401C20.1282 4.92868 15.8175 0.61792 10.506 0.61792ZM14.9707 7.16103C14.8264 8.68134 14.2009 12.3763 13.8834 14.0794C13.7487 14.8011 13.4793 15.0416 13.2291 15.0705C12.671 15.1186 12.2476 14.7049 11.7088 14.3488C10.862 13.7907 10.3809 13.4443 9.56303 12.9055C8.61043 12.2801 9.22626 11.9337 9.77472 11.3756C9.91906 11.2312 12.3823 8.98925 12.4305 8.78719C12.4371 8.75658 12.4362 8.72481 12.4279 8.69462C12.4195 8.66444 12.4039 8.63676 12.3823 8.61399C12.3246 8.56588 12.2476 8.58512 12.1803 8.59474C12.0937 8.61399 10.7466 9.50885 8.1197 11.2793C7.73481 11.5391 7.38841 11.6739 7.0805 11.6642C6.7341 11.6546 6.07979 11.4718 5.58906 11.3082C4.98286 11.1158 4.51137 11.0099 4.54986 10.6731C4.5691 10.4999 4.80966 10.3267 5.2619 10.1439C8.07159 8.9219 9.9383 8.11363 10.8717 7.72874C13.5466 6.61256 14.0951 6.42012 14.4607 6.42012C14.5377 6.42012 14.7205 6.43936 14.836 6.53559C14.9322 6.61256 14.9611 6.71841 14.9707 6.79539C14.9611 6.85312 14.9803 7.02632 14.9707 7.16103Z" fill="#777777"/>
</svg>
