<svg width="20" height="20" viewBox="0 0 20 20" fill="none" xmlns="http://www.w3.org/2000/svg">
<path d="M17.0464 3.41804C16.1413 2.52695 15.0633 1.82044 13.8751 1.33969C12.687 0.858951 11.4125 0.613609 10.126 0.617977C4.73578 0.617977 0.34265 4.89987 0.34265 10.1536C0.34265 11.8375 0.796771 13.4733 1.64578 14.9166L0.263672 19.8624L5.44658 18.5346C6.87805 19.2947 8.48722 19.6988 10.126 19.6988C15.5162 19.6988 19.9094 15.417 19.9094 10.1632C19.9094 7.61333 18.8925 5.2174 17.0464 3.41804ZM10.126 18.0823C8.66492 18.0823 7.23345 17.6974 5.97968 16.9758L5.68352 16.8026L2.60339 17.5916L3.42278 14.6664L3.22534 14.3681C2.41359 13.1047 1.98256 11.6443 1.98144 10.1536C1.98144 5.78511 5.63415 2.22489 10.1161 2.22489C12.288 2.22489 14.3316 3.0524 15.8618 4.55347C16.6194 5.28857 17.2199 6.16294 17.6283 7.1259C18.0367 8.08885 18.245 9.12124 18.241 10.1632C18.2607 14.5317 14.608 18.0823 10.126 18.0823ZM14.5883 12.155C14.3414 12.0396 13.137 11.4622 12.9198 11.3756C12.6928 11.2986 12.5348 11.2602 12.367 11.4911C12.1992 11.7316 11.7352 12.2705 11.597 12.4244C11.4588 12.588 11.3107 12.6073 11.0639 12.4822C10.8171 12.3667 10.0273 12.1069 9.0993 11.2986C8.36876 10.6636 7.88502 9.88418 7.73694 9.64362C7.59873 9.40307 7.71719 9.27798 7.84553 9.15289C7.95412 9.04704 8.09234 8.87384 8.2108 8.73913C8.32927 8.60442 8.37863 8.49858 8.45761 8.34462C8.53659 8.18104 8.4971 8.04633 8.43786 7.93087C8.37863 7.8154 7.88502 6.64149 7.68758 6.16038C7.49013 5.69851 7.28281 5.75624 7.13473 5.74662H6.66086C6.49304 5.74662 6.23636 5.80435 6.0093 6.04491C5.79211 6.28547 5.16029 6.8628 5.16029 8.03671C5.16029 9.21062 6.03892 10.346 6.15738 10.5C6.27585 10.6636 7.88502 13.0691 10.3333 14.0987C10.9158 14.3489 11.3699 14.4932 11.7253 14.5991C12.3078 14.7819 12.8409 14.753 13.2654 14.6953C13.7392 14.6279 14.7166 14.118 14.914 13.5599C15.1214 13.0018 15.1214 12.5303 15.0522 12.4244C14.9831 12.3186 14.8351 12.2705 14.5883 12.155Z" fill="#777777"/>
</svg>
