<svg width="31" height="32" viewBox="0 0 31 32" fill="none" xmlns="http://www.w3.org/2000/svg">
<path d="M26.1281 5.01058C24.746 3.57517 23.0998 2.43707 21.2854 1.66267C19.471 0.888264 17.5248 0.493056 15.5603 0.500092C7.32914 0.500092 0.620603 7.39757 0.620603 15.8605C0.620603 18.573 1.31407 21.208 2.61055 23.533L0.5 31.5L8.41457 29.361C10.6005 30.5855 13.0578 31.2365 15.5603 31.2365C23.7915 31.2365 30.5 24.339 30.5 15.876C30.5 11.7686 28.9472 7.90907 26.1281 5.01058ZM15.5603 28.6325C13.3291 28.6325 11.1432 28.0125 9.22864 26.85L8.77638 26.571L4.07286 27.842L5.32412 23.13L5.02261 22.6495C3.78303 20.6143 3.12483 18.2619 3.12312 15.8605C3.12312 8.82357 8.701 3.08858 15.5452 3.08858C18.8618 3.08858 21.9824 4.42158 24.3191 6.83957C25.4761 8.02371 26.393 9.43219 27.0167 10.9834C27.6403 12.5345 27.9583 14.1976 27.9523 15.876C27.9824 22.913 22.4045 28.6325 15.5603 28.6325ZM22.3744 19.0845C21.9975 18.8985 20.1583 17.9685 19.8266 17.829C19.4799 17.705 19.2387 17.643 18.9824 18.015C18.7261 18.4025 18.0176 19.2705 17.8065 19.5185C17.5955 19.782 17.3693 19.813 16.9925 19.6115C16.6156 19.4255 15.4095 19.007 13.9925 17.705C12.8769 16.682 12.1382 15.4265 11.9121 15.039C11.701 14.6516 11.8819 14.4501 12.0779 14.2486C12.2437 14.0781 12.4548 13.7991 12.6357 13.5821C12.8166 13.3651 12.892 13.1946 13.0126 12.9466C13.1332 12.6831 13.0729 12.4661 12.9824 12.2801C12.892 12.0941 12.1382 10.2031 11.8367 9.42807C11.5352 8.68407 11.2186 8.77707 10.9925 8.76157H10.2688C10.0126 8.76157 9.6206 8.85457 9.27387 9.24207C8.94221 9.62957 7.97739 10.5596 7.97739 12.4506C7.97739 14.3416 9.3191 16.1705 9.5 16.4185C9.6809 16.682 12.1382 20.557 15.8769 22.2155C16.7663 22.6185 17.4598 22.851 18.0025 23.0215C18.892 23.316 19.706 23.2695 20.3543 23.1765C21.0779 23.068 22.5703 22.2465 22.8719 21.3475C23.1884 20.4485 23.1884 19.689 23.0829 19.5185C22.9774 19.348 22.7513 19.2705 22.3744 19.0845Z" fill="white"/>
</svg>
