<svg width="20" height="14" viewBox="0 0 20 14" fill="none" xmlns="http://www.w3.org/2000/svg">
<path d="M8.22219 10.1269L13.2161 7.24019L8.22219 4.35353V10.1269ZM19.3455 2.59266C19.4706 3.04491 19.5572 3.6511 19.6149 4.42088C19.6823 5.19066 19.7111 5.85459 19.7111 6.43193L19.7689 7.24019C19.7689 9.34746 19.6149 10.8966 19.3455 11.8877C19.1049 12.7537 18.5468 13.3118 17.6808 13.5524C17.2286 13.6775 16.4011 13.7641 15.1309 13.8218C13.8801 13.8891 12.735 13.918 11.6766 13.918L10.1466 13.9757C6.11492 13.9757 3.60353 13.8218 2.61244 13.5524C1.74644 13.3118 1.18835 12.7537 0.947792 11.8877C0.822703 11.4355 0.736103 10.8293 0.67837 10.0595C0.611014 9.28973 0.582147 8.62579 0.582147 8.04846L0.524414 7.24019C0.524414 5.13293 0.67837 3.58375 0.947792 2.59266C1.18835 1.72666 1.74644 1.16857 2.61244 0.928017C3.06468 0.802928 3.89219 0.716327 5.16233 0.658594C6.41321 0.591239 7.55826 0.562372 8.6167 0.562372L10.1466 0.504639C14.1783 0.504639 16.6897 0.658594 17.6808 0.928017C18.5468 1.16857 19.1049 1.72666 19.3455 2.59266Z" fill="#777777"/>
</svg>
